<svg xmlns="http://www.w3.org/2000/svg" viewBox="0 0 900 600">
  <rect fill="#fff" width="900" height="600"/>
  <circle fill="#c60c30" cx="450" cy="300" r="150"/>
  <path fill="#003478" d="M450,300 a75,75 0 0,1 0,-150 a75,75 0 0,0 0,150"/>
  <path fill="#c60c30" d="M450,300 a75,75 0 0,1 0,150 a75,75 0 0,0 0,-150"/>
  <g stroke="#000" stroke-width="12">
    <path d="M225,162 l-150,87"/>
    <path d="M225,180 l-150,87"/>
    <path d="M225,198 l-150,87"/>
    <path d="M675,162 l150,87"/>
    <path d="M675,198 l150,87"/>
    <path d="M225,402 l-150,87"/>
    <path d="M225,438 l-150,87"/>
    <path d="M675,402 l150,87"/>
    <path d="M675,420 l150,87"/>
    <path d="M675,438 l150,87"/>
  </g>
</svg>