<svg xmlns="http://www.w3.org/2000/svg" viewBox="0 0 900 600">
  <rect fill="#de2910" width="900" height="600"/>
  <g fill="#ffde00">
    <polygon points="150,100 162,138 202,138 170,162 182,200 150,176 118,200 130,162 98,138 138,138"/>
    <polygon points="250,40 258,62 282,62 264,78 270,100 250,86 230,100 236,78 218,62 242,62"/>
    <polygon points="300,100 308,122 332,122 314,138 320,160 300,146 280,160 286,138 268,122 292,122"/>
    <polygon points="300,180 308,202 332,202 314,218 320,240 300,226 280,240 286,218 268,202 292,202"/>
    <polygon points="250,240 258,262 282,262 264,278 270,300 250,286 230,300 236,278 218,262 242,262"/>
  </g>
</svg>